# xmcd
#
# Track frame offsets:
#	150
#	28263
#	46061
#	64204
#	94972
#	100282
#	112647
#	134005
#	159969
#
# Disc length: 2378 seconds
#
# Revision: 17
# Processed by: cddbd v1.5.2PL0 Copyright (c) Steve Scherf et al.
# Submitted via: Jack! The Knife 20 Magnifico
#
DISCID=72094809
DTITLE=Black Sabbath - TYR
DYEAR=1990
DGENRE=Metal
TTITLE0=Anno Mundi
TTITLE1=The Law Maker
TTITLE2=Jerusalem
TTITLE3=The Sabbath Stones
TTITLE4=The Battle Of Tyr
TTITLE5=Odin's Court
TTITLE6=Valhalla
TTITLE7=Feels Good To Me
TTITLE8=Heaven In Black
EXTD=Black Sabbath
EXTT0=Martin, Iommi, Nicholls, Murray, Powell
EXTT1=Martin, Iommi, Nicholls, Murray, Powell
EXTT2=Martin, Iommi, Nicholls, Murray, Powell
EXTT3=Martin, Iommi, Nicholls, Murray, Powell
EXTT4=Iommi, Nicholls, Murray, Powell
EXTT5=Martin, Iommi, Nicholls, Murray, Powell
EXTT6=Martin, Iommi, Nicholls, Murray, Powell
EXTT7=Martin, Iommi, Nicholls, Murray, Powell
EXTT8=Martin, Iommi, Nicholls, Murray, Powell
PLAYORDER=
